<svg xmlns="http://www.w3.org/2000/svg" viewBox="0 0 36.48 36.48"><defs><style>.cls-1{fill:#fff;}.cls-2:hover{fill:blue;}</style></defs><title>facebook</title><g id="Layer_2" data-name="Layer 2"><g id="Layer_1-2" data-name="Layer 1"><circle class="cls-1" cx="18.44" cy="18.49" r="17.48"/><path class="cls-2" d="M18.24,0A18.24,18.24,0,1,0,36.48,18.24,18.24,18.24,0,0,0,18.24,0Zm6.17,11.07-.23.18a7.34,7.34,0,0,1-2.09.13A5.35,5.35,0,0,1,21,11.33a.52.52,0,0,0-.55.46v3.05A14.3,14.3,0,0,1,24.4,15l-.15,1.35-.19,1.6a1.09,1.09,0,0,1-.31.74,1.19,1.19,0,0,1-1,.45c-.79.07-2.45,0-2.45,0s0,1.73,0,2.55c0,2.87,0,5.73,0,8.59,0,.72-.14,1-.93,1-1.36-.09-2.72-.07-4.09-.09-.31-.26-.15-.62-.15-.93,0-3.32,0-6.65,0-10A2.09,2.09,0,0,0,15,19.13l-3,0a26.57,26.57,0,0,1,0-4.17h0l0-.06v.05c.91-.12,1.44-.06,2.16-.13.35,0,.72.09,1.05-.11,0-1.19.07-2.39.17-3.58a3.93,3.93,0,0,1,3.9-4,33.26,33.26,0,0,1,5.09,0A13.34,13.34,0,0,1,24.41,11.07Z"/><path class="cls-2" d="M12,14.93h0v-.05Z"/></g></g></svg>