<svg xmlns="http://www.w3.org/2000/svg" xmlns:xlink="http://www.w3.org/1999/xlink" viewBox="0 0 33.74 33.75"><defs><style>.cls-2{fill: #555555;}.cls-1:hover{fill:url(#linear-gradient);}</style><linearGradient id="linear-gradient" x1="2.65" y1="31.15" x2="31.18" y2="2.62" gradientUnits="userSpaceOnUse"><stop offset="0" stop-color="#f8cc00"/><stop offset="0.17" stop-color="#ec6419"/><stop offset="0.34" stop-color="#e51f25"/><stop offset="0.55" stop-color="#db1d46"/><stop offset="0.72" stop-color="#af3d8f"/><stop offset="0.81" stop-color="#6d4495"/><stop offset="1" stop-color="#6c4293"/></linearGradient></defs><title>insta-coloured</title><g id="Layer_2" data-name="Layer 2" class="cls-2 cls-1"><g id="Layer_1-2" data-name="Layer 1"><path d="M33.73,17c0,2.69,0,5.37,0,8.06a8.79,8.79,0,0,1-8.82,8.71q-7.77,0-15.54,0C3.91,33.71.12,30,.05,24.56,0,19.39,0,14.2,0,9a8.92,8.92,0,0,1,9.1-9c5.24,0,10.49,0,15.73,0A8.81,8.81,0,0,1,33.73,8.9c0,2.69,0,5.38,0,8.07ZM17.1,3.6c-1.87,0-3.74,0-5.61,0a7.55,7.55,0,0,0-7.86,7.78c0,3.84,0,7.68,0,11.52a7.72,7.72,0,0,0,7.93,7.78c3.9,0,7.8-.07,11.7-.12a7.46,7.46,0,0,0,7.43-7.38c.05-4,.06-8.07,0-12.11A7.5,7.5,0,0,0,23.11,3.6C21.11,3.58,19.11,3.6,17.1,3.6Z" transform="translate(0 0)"/><path d="M28.82,17.18c0,2.06,0,4.13,0,6.2a5.47,5.47,0,0,1-5.37,5.44c-4.17.05-8.34,0-12.5,0a5.48,5.48,0,0,1-5.46-5.57c0-4,0-8,0-12a5.57,5.57,0,0,1,5.68-5.88c4-.08,8.07-.07,12.11,0a5.57,5.57,0,0,1,5.56,5.7C28.83,13.11,28.82,15.14,28.82,17.18ZM17.25,24.85a6.89,6.89,0,0,0,7-6.88,7,7,0,1,0-14-.08C10.17,21.57,13.49,25.09,17.25,24.85ZM25.78,9.69A1.08,1.08,0,0,0,24.7,8.54a1,1,0,0,0-1.19,1,1.06,1.06,0,0,0,1.12,1.22A1.08,1.08,0,0,0,25.78,9.69Z" transform="translate(0 0)"/><path d="M17.17,23.13A5.17,5.17,0,0,1,12,17.94a5.25,5.25,0,0,1,5.23-5.3,5.35,5.35,0,0,1,5.26,5.3A5.24,5.24,0,0,1,17.17,23.13Z" transform="translate(0 0)"/></g></g></svg>