<svg xmlns="http://www.w3.org/2000/svg" xmlns:xlink="http://www.w3.org/1999/xlink" viewBox="0 0 3244.29 2254.7"><defs><style>.cls-1{fill:url(#linear-gradient);}.cls-2{fill:url(#linear-gradient-2);}.cls-3{fill:url(#linear-gradient-3);}.cls-4{fill:url(#linear-gradient-4);}.cls-5{fill:url(#linear-gradient-5);}.cls-6{fill:url(#linear-gradient-6);}.cls-7{fill:url(#linear-gradient-7);}.cls-8{fill:url(#linear-gradient-8);}.cls-9{fill:url(#linear-gradient-9);}.cls-10{fill:url(#linear-gradient-10);}.cls-11{fill:url(#linear-gradient-11);}.cls-12{fill:#fff;}.cls-13{fill:url(#linear-gradient-12);}.cls-14{fill:url(#linear-gradient-13);}.cls-15{fill:url(#linear-gradient-14);}.cls-16{fill:#755e8c;}.cls-17{fill:#001f62;}.cls-18{fill:#735b8a;}.cls-19{fill:#334c81;}.cls-20{fill:#f5b6b8;}.cls-21{fill:#f1f1f1;}.cls-22{fill:#e6a7a7;}</style><linearGradient id="linear-gradient" x1="383.82" y1="1182.56" x2="2530.52" y2="1182.56" gradientUnits="userSpaceOnUse"><stop offset="0" stop-color="#b4d5ee"/><stop offset="1" stop-color="#9d93e2"/></linearGradient><linearGradient id="linear-gradient-2" x1="32.53" y1="1341.9" x2="2863.83" y2="1341.9" xlink:href="#linear-gradient"/><linearGradient id="linear-gradient-3" x1="375.91" y1="1437.74" x2="2538.5" y2="1437.74" gradientUnits="userSpaceOnUse"><stop offset="0" stop-color="#4471ae"/><stop offset="0.5" stop-color="#b4d5ee"/><stop offset="0.63" stop-color="#8eb3d8"/><stop offset="0.79" stop-color="#628cbf"/><stop offset="0.92" stop-color="#4774b0"/><stop offset="1" stop-color="#3d6baa"/></linearGradient><linearGradient id="linear-gradient-4" x1="2726.16" y1="509.18" x2="2933.5" y2="509.18" gradientUnits="userSpaceOnUse"><stop offset="0" stop-color="#b4d5ee"/><stop offset="1" stop-color="#e8f1fc"/></linearGradient><linearGradient id="linear-gradient-5" x1="3038.48" y1="382.65" x2="3244.29" y2="382.65" xlink:href="#linear-gradient-4"/><linearGradient id="linear-gradient-6" x1="2446.53" y1="957.22" x2="2617.9" y2="957.22" xlink:href="#linear-gradient-4"/><linearGradient id="linear-gradient-7" x1="2593.03" y1="567.62" x2="3055.74" y2="567.62" xlink:href="#linear-gradient-4"/><linearGradient id="linear-gradient-8" x1="643.51" y1="502.78" x2="783.32" y2="502.78" xlink:href="#linear-gradient-4"/><linearGradient id="linear-gradient-9" x1="373.13" y1="389.27" x2="512.19" y2="389.27" xlink:href="#linear-gradient-4"/><linearGradient id="linear-gradient-10" x1="98.17" y1="181.82" x2="235.65" y2="181.82" xlink:href="#linear-gradient-4"/><linearGradient id="linear-gradient-11" x1="442.08" y1="159.21" x2="582.3" y2="159.21" xlink:href="#linear-gradient-4"/><linearGradient id="linear-gradient-12" x1="2871.5" y1="820.59" x2="3076.21" y2="820.59" xlink:href="#linear-gradient-4"/><linearGradient id="linear-gradient-13" x1="455.59" y1="984.99" x2="1064.3" y2="984.99" xlink:href="#linear-gradient-4"/><linearGradient id="linear-gradient-14" x1="2481.69" y1="1016.15" x2="1846.71" y2="1016.15" xlink:href="#linear-gradient-4"/></defs><title>isometric-sofa</title><g id="Layer_2" data-name="Layer 2"><g id="Layer_1-2" data-name="Layer 1"><path class="cls-1" d="M1838.39,1678.08c2.17-9.13,2.7-19.23,13.31-23.71,16.86-4,34-2.93,50.92-1.82,95.78,6.3,191.67,9.28,287.57,12.93,62.69,2.39,125.31,1.17,187.92,3.19,31.48,1,62.56-3.25,93.8-5.13,31.39-1.9,36.66-8,43.16-38.22,6.29-29.29,10.87-58.84,14.84-88.52,2.42-18.07-2.29-31.85-15.07-46-44.24-49-89.37-97.17-132.26-147.36-5.12-6-12.5-11.17-10.19-20.9,6.08-3.69,12.05-1.54,17.54,1.08,13.53,6.47,16.75,2.06,14.53-11.7-8.06-49.81-10.53-100-9.12-150.4,2.76-99.32,22.35-195.65,51.8-290.2,7.08-22.73,15.28-45.11,22.4-67.82,5.85-18.66,3.92-21.49-15.89-21.66-112-.91-222.76-14.22-332.82-33.81-55-9.8-109.18-23.59-162.8-39.35-26.91-7.91-29.11-6.34-29.56,21.76-2,124.25-18.6,246.57-48.8,367.06-2.37,9.45-1.44,88.1-12.37,93.61l-847.72,3.44c-21.83-80.29,5.73-280.62-2.68-363.26-4.74-46.64-9.35-93.32-8.61-140.35.33-20.44-2.93-22.64-23.32-16.51-94.89,28.51-191.65,48-290,59.73-69,8.26-138,15.08-207.64,15-25,0-26.82,2.6-18.39,25.55,38.24,104,64.32,210.93,71.71,321.61,4.17,62.46,2.21,125.11-8.51,187.13a157.52,157.52,0,0,0-2.49,24.33c-34.68,50.42-69.93,100.46-104.77,150.78-6.2,9-11.29,19-18.61,26.81-23.32,25-26.61,53-18.43,85.14,7.88,31,10.77,63,15.55,94.62,3.79,25.16,6.24,27.62,31,27.65,121.34.16,242.73,2.34,364-.72,83.68-2.12,167.43-3.67,251.08-7.59,19.66-.93,39.12-6.22,59-2.73"/><path class="cls-2" d="M2741.43,2076.51H2572.72l-6.29-52.38c-.26-27.28-1.42-28.7-29.08-28.72q-270.93-.17-541.87-.05-156.42,0-312.85-.06c-10.83,0-21.89,1.19-32.2-3.67l-342.55,2.28c-12.19,2.19-24.48,1.4-36.73,1.41q-449.73.08-899.46,0c-38.26,0-38.26,0-37.95,38.21l-5.58,45c-47.89,0-95.79.08-143.69-.08-8,0-16.25,1.56-23.83-2.58a6.18,6.18,0,0,1-1.92-7.16c-.28-21.06-1.27-42.15-.57-63.18.44-13.35-2.38-19.37-17.66-19.06-31.36.64-31.55-.26-30.65-32.59q7.16-258,14.78-516c.35-11.54-3.22-19.08-11.18-26.55-24.36-22.9-46-47.8-62.76-77.24-27.94-49.17-22.38-96,8.22-140.63,36.92-53.85,91.36-86.66,148.38-114.65,59.72-29.32,122.5-51.4,186.54-69.49,10-2.82,13.5-6.9,7.44-14.57-18.71-23.7-23.78-51.37-25.78-80.2a547,547,0,0,1,0-81.47l1.05-23.63c4.12-8.09-.25-17.18,3-25.37q.56-9.76,1.09-19.52c3.85-6.71-.09-14.53,3.07-21.33q.56-7.56,1.1-15.11c3.63-6.85-.17-14.76,3.09-21.66,2.76-31.15,26.26-45,50.5-55,40.42-16.69,83.5-24.61,126.78-30.66l36.14-5c7-2.87,14.87.58,21.81-2.9l23.19-1.18c11.14-3.42,23,1.24,34.06-2.92l43.6-1.08c14.55-5.38,29.41-1.28,44.08-1.16,52.1.43,104.21-1.78,156.29,1.16l63.56,1.07c15.4,4.37,31.39-.67,46.83,2.92l39,1.13c11.29,4.09,23.31-.35,34.67,2.94l31,1.2c9.84,3.88,20.45-.29,30.36,2.88l759.09,5.26c25.94,3.81,52.05.69,78.06,1.74,7.31.3,14.72-1.1,21.93,1.19l75.92,1.15c18.14,4.51,36.8-.76,55,2.93l59.42,1.13c18.18,4.59,36.91-.84,55.14,3l39.09,1.07c14,4.32,28.65-.61,42.71,2.93l39.62,1.16c11.06,4.22,22.91-.56,34,3,54.64,5.35,69.54,19.81,77.88,75.17,1.2,8,3.18,15.78,4.79,23.66,3,8.53-.74,17.83,2.93,26.29l0,53.34c-3.94,9.85.34,20.51-3,30.43-.07,1.38-.13,2.76-.2,4.14,5.53,7.61,2.22,15.78,1,23.56-7.55,49.65-16.09,99-49.75,139.4-7.4,8.89-6.09,13.67,6.05,15.9,28,5.14,56.1,9.32,83.82,15.76,13,3.73,26.25,6.71,39.41,10,8.81,3,18.65,3.64,25.34,11.32,53.72,17.3,107.28,35,155.11,66.07,39.09,25.37,72.17,56.08,85.35,102.68,10.59,37.43,5.34,74.88-16.31,105.62-39.47,56.06-49.91,117.68-52.21,184.24-5,144.69-13.9,289.25-21,433.87-.6,12.19-.13,23.85-18,21.11-10.48-1.61-12.31,4.73-12.09,13.56.42,16.31,1.26,32.74-.21,48.93Z"/><path class="cls-3" d="M1846.71,1191.57c139.41-4,368.67,64.1,496.79,117.21,9.88,4.09,21,6.19,29.13,14,25,28.47,49.73,57.17,75,85.37,28,31.28,56.55,62.15,85,93.09,10.54,11.48,3.91,25,2.84,36.66-3.26,35.55-10.82,70.57-17.87,105.63-2.83,14.07-10.25,19.15-22.25,22.07-27.17,6.61-55.15,7.27-82.65,8.14-60.54,1.9-121.26,2.41-181.77.12-74.55-2.83-149.12-5.29-223.66-8.34-52.76-2.15-105.39-7.88-158.31-7.52l-639.49,22.39c3.12,5.45-96.26-.35-96.8,6.13-92.9,3.83-185.87,5.89-278.74,9.32-138.11,5.1-276.12.45-414.14,3.09-12.4.24-17.62-3.76-19.58-17-7-47.32-16-94.35-23.57-141.6-1.81-11.32-.44-22.16,7-32.7q65.76-92.61,130-186.28c4-5.84,9.55-9.37,13.94-14.38,3.51-10.35,13.25-13.31,21.65-17.16,112.78-51.62,229.65-87.63,354.44-95.57,38.78-2.47,77.24-5.7,115.87.33,6.71,1,81.42-22.32,86.82-17.28Z"/><path class="cls-4" d="M2847.1,408.3c44.72,7.43,79.34,43.24,85.68,88.73,5,36-16.44,85.1-56.9,103.65-43.54,20-84.34,14.66-117.92-17.66-17.45-16.79-28.78-35.79-29.52-60.35a34,34,0,0,1,0-24.47c1-46.44,39.45-86.63,86-89.91A58.35,58.35,0,0,1,2847.1,408.3Z"/><path class="cls-5" d="M3239.78,420.58c-19,36.85-48.14,59.79-89.94,65.37-54.57-.09-96.49-26.72-107.57-72.87-15.45-64.33,17.16-121.52,83-131.38a58.29,58.29,0,0,1,32.7,0c58.46,9.72,96.58,65.67,83.81,122.82C3240.65,409.76,3240.44,415.22,3239.78,420.58Z"/><path class="cls-6" d="M2552.73,1056.93q-48-8.37-95.9-16.78c-7.15-1.27-15.12-3.52-6.62-12.28,46.18-47.63,51.3-110,62-170.35,40.65.85,71.64,19.3,91.6,53.93,20.69,35.91,18.25,72.1-4.67,106.81-2.22,3.37-3.77,7.18-5.64,10.79C2585.78,1046.93,2570.38,1053.56,2552.73,1056.93Z"/><path class="cls-7" d="M2618.08,1073.43c-8.63-1.52-17.34-2.72-25-7.35,2.77-8.39,8.33-14,16.84-16.53,32.36-25.23,57.82-57.32,84.84-87.59A1253.89,1253.89,0,0,0,2809,812c102.31-156.68,172-326.51,206.11-510.71,9.71-52.45,18.2-105,20.15-158.4,5.63-10.36-1.3-22.27,4-32.67,0-12.77,0-25.53.14-38.3,0-5,.92-9.65,7.21-10.09,7.43-.52,9,4.39,9,10.37q.06,31.25.07,62.48c-5.29,7.52,1,16.94-4,24.51-5.55,87.64-21,173.61-44.92,258-11.21,39.55-24.55,78.5-36.93,117.72-23.14,55-45.39,110.38-73.48,163.21-49.8,93.65-108.18,181.33-177.82,261.59-29.36,33.83-58.81,67.47-91,98.66C2623.22,1062.6,2618,1066.41,2618.08,1073.43Z"/><path class="cls-8" d="M725.92,434.82c37.59,10.75,59.44,37.83,57.25,71-2.27,34.6-30.68,62.46-68.25,66.93-25.7,3.06-56.81-20.48-68.39-51.76-9.57-25.82,4.43-62.52,30.16-77.71,7.51-4.43,15.2-9.4,24.71-8.47A34.1,34.1,0,0,1,725.92,434.82Z"/><path class="cls-9" d="M512.19,389.4c-.06,36.15-32.69,69-68.84,69.29-38,.31-70.42-32-70.22-69.87.2-38.25,32.09-69.42,70.53-69C480.48,320.29,512.25,352.54,512.19,389.4Z"/><path class="cls-10" d="M100.45,167c5.54-32.14,25.85-51,57.33-53.16a24.36,24.36,0,0,1,20.42,0c37.86,6.69,59.67,34.86,57.27,74-2.06,33.62-33.68,62.53-70.3,64.27-30.28,1.44-58.88-23.55-64.72-56.53A45.83,45.83,0,0,1,100.45,167Z"/><path class="cls-11" d="M580.05,171.27c-11.76,40.76-34.79,58.32-75,57.19-29.29-.82-53.29-24.34-61.77-60.52-8.74-37.26,32.45-82.41,70.89-77.7,37.4,4.59,59.57,25,65.9,60.65A24.27,24.27,0,0,1,580.05,171.27Z"/><path class="cls-12" d="M2609.87,1049.55a42.69,42.69,0,0,1-16.84,16.53l-40.3-9.15c14.11-8.53,28.74-16.28,40.73-27.88Z"/><path class="cls-12" d="M16.91,1486.37c2.87-14.08-2.59-19.95-16.91-17.08,5.8-4.55,12.92-5.45,17.73-.57S21.72,1480.67,16.91,1486.37Z"/><path class="cls-12" d="M3158,281.7h-32.7Q3141.66,272.33,3158,281.7Z"/><path class="cls-12" d="M3039.35,110.24c-1.72,10.85,4.07,22.62-4,32.67C3037.08,132.08,3031.23,120.29,3039.35,110.24Z"/><path class="cls-12" d="M2847.1,408.3h-32.69Q2830.76,398.93,2847.1,408.3Z"/><path class="cls-12" d="M467.22,25.57V54.12Q457.67,39.84,467.22,25.57Z"/><path class="cls-12" d="M830.31,363.38H805.79Q818.06,354.17,830.31,363.38Z"/><path class="cls-12" d="M3051.71,159.21c1.27-8.18-3.34-17.33,4-24.51C3054.43,142.88,3059.07,152,3051.71,159.21Z"/><path class="cls-12" d="M3010.77,0h24.51Q3023,9.21,3010.77,0Z"/><path class="cls-12" d="M2728.44,498.2v24.47Q2719.22,510.43,2728.44,498.2Z"/><path class="cls-12" d="M781.28,147V126.58Q790.3,136.77,781.28,147Z"/><path class="cls-12" d="M1309,2218.17c7.57-.41,15,0,22.17,3C1323.75,2220.75,1315.77,2224.08,1309,2218.17Z"/><path class="cls-13" d="M3076.21,821.32c0,57.22-44.64,101.56-102.22,101.58-56.72,0-101.81-45.56-102.48-102.2-.63-53,45.58-104.23,104.16-102.37C3033,720.14,3076.23,762.85,3076.21,821.32Z"/><path class="cls-14" d="M1038.64,1200.52c-59-5.35-117.64-3.7-176.55,3.29-97.19,11.54-189.71,38.68-279.18,77.28-18.68,8.06-36.88,17.21-55.29,25.86-7.41-6.25-3.16-13.58-2-20.68,13.2-81,13.53-162,3.55-243.39-11.8-96.2-36.64-189-70.88-279.36-7-18.53.18-20,15.73-20.15,134.27-1.09,267-16.64,398-45.54,41.76-9.22,83-21.11,124.07-33,13.54-3.91,18-2.39,18.13,12.67,1,128.7,16.63,255.61,48.26,380.48,1.64,6.5,1.24,13.51,1.79,20.29-10.13,24.26-7.49,50.41-12.86,76.49C1048.08,1171.12,1034.54,1184.58,1038.64,1200.52Z"/><path class="cls-15" d="M1943.13,1230.19c-34.26-25.87-54.94-34.3-96.42-38.62,13.7-21.22,18.9-44.16,18.72-68.38,17.78-52.76,27.64-107.38,36.31-162.11,12.85-81.07,21.22-162.63,21.45-244.87.07-22.47,3.1-23.82,25.67-16.84,94.91,29.32,191.78,49,290.46,60.67,75.61,9,151.25,16.7,227.46,16,17.79-.17,16.59,7,12,19.73C2449.21,877.55,2425,960.7,2412,1047c-13.88,91.91-15.78,183.54.48,275.29.8,4.53.55,9.25.82,14.39-16.07.32-26.62-12-40.69-13.88-7.85,1.49-14.76-1.79-21.58-4.69-91.91-39.11-187-66.43-286.58-76.85-30.36-3.18-60.76-7.08-91.43-6.32C1962.77,1235.16,1952.61,1234.84,1943.13,1230.19Z"/></g><g id="Layer_2-2" data-name="Layer 2"><path class="cls-16" d="M1640.48,418.68q-9.59,8.28-19.17,16.59,1-16.49,2-33c3.13-11.76-3.33-25.54,7.55-35.66,2.76-10.05-6.74-31.79,19-19.91C1654.74,371.75,1644.17,394.76,1640.48,418.68Z"/><path class="cls-17" d="M1640.48,418.68c-6.85-25.3,5.13-48.12,9.46-71.95,22.57,14.52,4.57,35.4,8.32,52.9C1654.37,407.88,1653.3,418.75,1640.48,418.68Z"/><path class="cls-18" d="M1607.61,636.78C1593.86,638,1593.86,638,1585,613.1c4.45-25.66,5.86-52,17.85-75.91-.47-11.43,1.82-22.29,7.44-34.41L1625,523.26c-14.33,23.53-11.88,50.86-16.3,76.49C1606.63,611.48,1597.44,624.3,1607.61,636.78Z"/><path class="cls-19" d="M1199.69,1823.29c-21,4.28-27.27,23.1-39.27,42-14-36.71-29.35-70.07-54.4-96.68-29.13-31-46-66.64-52.27-108.18-.72-4.82-5.32-9.06-8.12-13.57-25.66-36.76-51.06-74-67.32-115.82-19.67-50.62-44.09-98.65-71.27-145.45-23.35-40.19-36.75-82.48-35.41-129.92,1.28-44.95,22.91-75.95,59.09-98.49,20.3-12.64,42.37-22.16,69.75-24.37,0,0-3-4.36-2.43-1.31-23.57-1.81-33.24-18.76-41.24-37.61-12.09-51.87,3.34-97.06,33.85-138.57a285.83,285.83,0,0,0,25.7-83.13c4-27.65,14.4-52.53,30.92-73.78,18-23.21,21.38-49.7,26.34-76.73,7.29-39.66,16.29-79,54.1-102.92,6-3.82,6.64-10.22,6.1-16.5-2.64-30.47,16.53-46.61,39.83-59.23,30-16.26,64-22.32,98.19-36.18-15.53-18.57-22.81-40.63-30.66-62.45-6.88-22.1-22.88-39.75-22.88-66,0-25.17,8-44.31,21.69-63.19,5.25-7.26,10.3-14.67,15.45-22,4.55-11.16-1.11-23.46,3.83-34.58,5.7-20.81,24.24-25.1,40.77-26.62,32.73-3,60-17.86,86.92-34,51.21-30.69,108.76-17,136.51,35.31,9,16.87,22.92,24.12,38.6,29.68,22.66,8,37.36,21.45,37,46.78-.32,20.87,20.33,31.68,23.5,50.71,8.73,10.73,5.36,23.58,6.28,35.67a221.14,221.14,0,0,1-1,31c-2.77,13.76-9.8,26-14.87,38.91-6.29,16-17.13,18.24-31.15,7.69-11.34-8.52-19.35-19.86-25.73-32.48-7.33-14.5-13.67-29.56-22.36-43.3-15.5-24.49-36.07-30.84-61.58-17.47a163,163,0,0,1-75.78,18.85c-25.59.25-35.7,10.77-32.33,36.41,3.92,29.82-.07,55.37-26.1,74.13-5.22,3.77-7.65,9.6-7.84,16.18-.11,3.87.3,7.78-.28,11.59-3.07,20.28-3,20.13,15.55,37.12,7.88,7.22,18.44,11.86,22.67,22.75.37,5.53-2.41,9.43-6.5,12.69-30.35,22.94-49.39,50.78-49.75,91.31a529.84,529.84,0,0,0,18.87,144.2c18,66.37,24.51,133.39,14.6,201.87-3.38,23.38-8.64,45.92-22.63,64.89-10.86,14.72-8,24.18,5.26,34.88,10.79,8.69,22.12,17,31.59,27.23,7.16,7.72,13.52,16.24.66,24.85-22.61,4.74-45.83,4-68.62,7.8-34.42,5.77-48.63,29.39-35.15,62,17.3,41.86,49.44,71.76,83,100.42,8.54,7.29,20.57,11.29,23.66,24-4.21,8.61-12.51,7.8-20,8.56-39.16,4-78.53,5.07-117.68,9.27-22,2.36-23.61,3.66-13.66,23.39,28.19,55.89,55.54,112.06,69.23,173.69,1,4.52,2.22,9,2.85,13.59,7.31,55.28,21.35,108.14,53,155.27,6.07,9,17.8,20.22,1.33,31.29-2.21.71-4.53,1.79-6.75,1.41C1286.21,1802.42,1242.38,1807.08,1199.69,1823.29Z"/><path class="cls-17" d="M1692.08,2101.93c-.49,9,6.31,15.21,8.59,23.09,10.75,37-6.88,65.59-45.77,68.29-34,2.35-68.77,4.57-102.23-4.17-34.08-8.89-59.8-29.13-71.88-63.61-14.37,7.76-28.22,16-42.69,22.9-19.41,9.28-32.95,21.78-40.37,43.54-16.58,48.6-58.1,59.76-103.59,62.73-8-3.88-17.11-.07-25.23-3.4-22.44-4.19-45.72-5.48-66.6-15.59-32.85-15.91-47.06-48.11-30.81-85,7.61-17.26,15.84-34.1,27.5-49.07l23.32-17.82c.56-7.51,5.78-12.29,10.72-16.84,16.9-15.57,26.55-34.81,30.18-57.24,1.22-7.5,4-14,10-18.82l12.11-18.49c7.41-23.18,24.51-33.36,54.55-29.14,25,3.52,49.67,9.62,75.18,8.33,24.83-1.58,35.61,14.46,43.26,34.39,8,13.88,14.55,28.55,21.45,46.56,6.07-16.92,6.74-31.5,10.68-45.29,8.63-31.13,19.36-61.07,46.31-81.9,29.81-19.23,60.87-18.9,91.66-3.74,24.49,12.06,33.32,32.34,26.88,55.7l-.25,33.4c1.44,1.81,3.66,3.7,3.62,5.77-.57,31.59,13.18,59.2,24.08,87.6"/><path class="cls-20" d="M1366,597.69c-20.15-14.09-40-28.53-55-50,10.33.67,16.31-1.69,12.93-13.47-4.7-16.34.56-27.25,17-35,16.75-7.91,18-25.77,18.92-42.1.43-7.61-1.33-15.33-1.74-23-1.74-32.73,4.81-40,37.09-40.81,25.75-.61,50.38-4.54,73.36-17.52,27.92-15.78,51.35-9.85,69.2,17.28,7.56,11.49,13.08,24.36,19.13,36.8s12.09,24.93,22.29,34.81c17.82,17.26,21.71,16.25,30.3-7.16,3.43-9.35,8.11-18.26,12.23-27.36,4.4-8.27,7.21-17.87,17.61-21.14,9.58-.62,8.76-15.17,19.34-14.48,1.33,5-.53,13.05,5.32,14.23,27.39,5.54,15.31.57,48.39,19.52a4.32,4.32,0,0,1,1.88,3.31c.12,3.12,4,5.58,5.51,13.35,19.34,26.13,37.08,51.68,42.63,83.08,2,4.17,4.12,8.33,4.23,13.1,1,45.75-46.18,106.69-90.75,117.86-15.64,3.91-18.16-9.28-21.81-22.11-3.71-13-7-26.19-9.73-39.48-5-24.91-11.32-49.44-21.64-72.75-2.8-7.15-8.8-12.68-10.77-21.29-1.83,10.48-2.19,20.39-5.27,29.79a166.46,166.46,0,0,1-44.17,51.74c-53.78,42-112.93,50-176.81,27.72C1377.6,609.75,1369.85,606.21,1366,597.69Z"/><path class="cls-17" d="M1416.65,1957.42a249.34,249.34,0,0,1-70.81-6.66c-21.92-5.15-42.92-3.07-58.52,16.3-19.31-22.66-21.27-53.16-35.72-78.27-14.18-24.65-26.25-50.22-51.91-65.5,33.72-27.31,73.3-24.22,112.73-21.43,8.45.59,16.81,2.53,25.21,3.85,21,12.74,30.84,34.16,39.55,55.13C1390.52,1892.94,1404.39,1924.86,1416.65,1957.42Z"/><path class="cls-19" d="M1625.38,518.1c23.73,43.26,24.68,93.19,40,137.44,65.92-17,90.76-65.34,97-127.54,21.63,16,31.5,37,27.56,63.94-1.44,9.83,1.25,17.14,10.1,23.57,46.77,34,72.49,82.63,91.23,135.46,6.91,19.49,9.9,40.19,10,61q.32,97.15.25,194.33c13.1,26-3,48.29-10.12,72.63,38.57,5.25,72.67,19.53,101.77,44.89,58.17,46.9,58.89,104.78,34.63,169.18-23.75,63-50.5,124.19-87.8,180.69-20.09,30.43-31.4,65.21-40.93,100.37-3.8,14-5.74,28.93-16.29,40.3-11.47,42.27-19.13,85.64-35.52,126.5a525.94,525.94,0,0,1-22.3,48.29c-6.54,12.48-13.09,20.36-24.74,1.75-15.35-24.51-37-43.14-65.9-51.32-16.19,3.31-31.74-3-47.82-3.18-26-.33-50.06,5-72.44,18.12-21.84,7.26-27.76,2.47-25.47-22.51,4.11-45,7.26-90.22,18.57-134.25,17.27-66,44.5-127.9,82.43-190.53-69.07,18.33-132.7,5.43-196.4-5.36-10.6-1.8-21.59-2.64-30.56-9.74-7-20.37-7.44-42.26-14.73-62.64-2.94-8.2,1.15-15,8.9-19.18,90.24-19.72,169.71-61.31,241.28-118.86,22.37-18,41.12-39.67,64.65-62.25-16-2.18-30,.8-42.57-3.39-64.48-21.44-120.89-51.83-142.2-123.54-7.69-25.85-17.36-51.26-27.73-76.22-30.67-73.81-22.26-143.42,21.22-209.61,11.88-18.09,24.25-35.85,33.41-55.6,4.94-10.64,6.83-20.53-2.44-29.81-5.58-34.71,5.53-67.7,10.64-101.28C1614,523.45,1618.09,518.64,1625.38,518.1Z"/><path class="cls-17" d="M1612.87,1749c38.88-23.8,79.47-25.63,121.46-9.41.11,9.59-3.89,18.08-8.4,26-27.15,47.58-29.23,104.59-57.19,151.58-7.7,13,4.37,31.47-13.46,40.22-5.91-56-63.4-78.72-116.79-46.19-14.18-2.61-9.46-13.37-8.13-21.22,2.61-15.39,10.49-28.83,18.62-42C1569.6,1814.53,1591.1,1781.69,1612.87,1749Z"/><path class="cls-21" d="M1608,631.64c15.23,5.77,11.56,16.14,5.77,26.12-12.4,21.37-24.66,42.87-38.21,63.5-41.72,63.51-49.06,129.91-20.52,200.74,13.24,32.87,23.79,66.82,35.82,100.18,5.59,15.53,14.49,29.47,27,39.92,44.75,37.27,92.13,68.66,155.8,59.93-.56,2.91-.25,5.49-1.39,6.72-80.55,86.82-174.84,151.75-291.14,181.36-7.44,1.9-15.24,2.44-22.87,3.61-9.35,3.46-17,.79-21.47-7.77-20.3-39.11-46.14-73.9-79.16-103.28-1.71-1.52-1.56-4.13-.76-6.41,9.5-2.89,10.57-6.64,2.42-13.37-16.67-13.77-32.6-28.43-49.25-42.22-6.09-5-10-8.58-3.1-16.29,28.84-32,32.12-72.11,35.31-112.39,5.25-66.45-7.77-130.36-24.53-194.06-11.85-45-19.19-91.57-11.43-137.49,5.41-32,19.83-62.91,55.8-74.91,15.77,11.82,31.76,23.17,44.44,38.75,33.62,41.32,57.76,43.63,100.5,12.93,22.05-15.84,37.26-38.73,59.38-54.26a27.22,27.22,0,0,1,16.44.31C1597.72,607,1590.63,630.13,1608,631.64Z"/><path class="cls-20" d="M1464.36,1391.49c-10.34,20.36-26.54,25.44-48.44,21-19.26-3.86-36.74-11.45-54.18-19.7-46.07-33.3-88.77-69.26-111.7-123.79-13.33-31.71.92-62.27,35.33-67.31,23.63-3.46,47.47-7,71.59-5.48,34.18,26.25,59.73,59.49,79,97.7,4.93,9.76,8.92,20,22.39,19.75-10,3.75-8.85,9.43-4.56,17.64C1463.6,1350.11,1466.54,1370.44,1464.36,1391.49Z"/><path class="cls-17" d="M1166.11,852.64c24.79,82.42,49.59,164.84,75.71,251.68-49-18.36-85.54-44.73-108.34-86.7-8.94-16.46-8.09-36.6.91-53.53C1152.84,929.37,1161.24,892.51,1166.11,852.64Z"/><path class="cls-22" d="M1566,605.44c-20.36,29.83-47.17,52.67-78.11,70.77-20.74,12.14-41.91,11.95-60.23-4.13-23.39-20.54-46.26-41.81-65.48-66.54,1.27-2.62,2.53-5.23,3.79-7.85,68.84,32.29,134.19,28.52,195.31-18.85C1569.14,586.59,1569.21,595.72,1566,605.44Z"/><path class="cls-17" d="M1603.28,532.05c-3.14,22.07-6.36,44.14-9.35,66.24-.72,5.37-3.75,8.14-8.52,9.66-6.46-.83-12.93-1.65-19.42-2.5-6.74-8-5-17.41-4.73-26.61C1578.53,566.16,1589.66,548,1603.28,532.05Z"/><path class="cls-17" d="M1763.1,822.38c18.55,36.54,15.8,74.27,21.34,110.3,2.82,18.28-13.59,12.18-23,12.87-16.33,1.19-20-8.86-17.4-22.44,5.38-27.83,11.28-55.56,16.85-83.35C1761.76,835.27,1762.06,830.66,1763.1,822.38Z"/></g></g></svg>