<svg xmlns="http://www.w3.org/2000/svg" viewBox="0 0 49.51 49.51"><defs><style>.cls-1:hover{fill:blue;}.cls-2{fill:#fff;}</style></defs><title>linkedin</title><g id="Layer_2" data-name="Layer 2"><g id="Layer_1-2" data-name="Layer 1"><rect class="cls-1" width="49.51" height="49.51"/><path class="cls-2" d="M8.32,10.82a3.86,3.86,0,0,1-2.6-.93A3.29,3.29,0,0,1,4.64,7.25,3.29,3.29,0,0,1,5.75,4.7a3.72,3.72,0,0,1,2.57-1,3.86,3.86,0,0,1,2.51.91,3.25,3.25,0,0,1,1.09,2.64,3.36,3.36,0,0,1-1.07,2.63A3.67,3.67,0,0,1,8.32,10.82Zm3.6,7.52v21a4.68,4.68,0,0,1-1,3.3A3.42,3.42,0,0,1,8.24,43.8a3.3,3.3,0,0,1-2.6-1.14,4.84,4.84,0,0,1-1-3.28V18.55a4.65,4.65,0,0,1,1-3.25,3.35,3.35,0,0,1,2.6-1.09,3.47,3.47,0,0,1,2.64,1.09A4.25,4.25,0,0,1,11.92,18.34Z"/><path class="cls-2" d="M26.05,18.23v.88a12.79,12.79,0,0,1,4.2-3.71,11.06,11.06,0,0,1,5.24-1.19,10.49,10.49,0,0,1,5.14,1.25A8,8,0,0,1,44,19,8.4,8.4,0,0,1,45,21.89a29.94,29.94,0,0,1,.22,3.94V39.38a4.82,4.82,0,0,1-1,3.3,3.6,3.6,0,0,1-5.24,0,4.79,4.79,0,0,1-1-3.28V27.25a12.09,12.09,0,0,0-1-5.51c-.66-1.27-2-1.91-4-1.91A5.94,5.94,0,0,0,29.38,21,6.69,6.69,0,0,0,27,24.18a22.51,22.51,0,0,0-.54,6.08v9.12a4.76,4.76,0,0,1-1,3.32,3.46,3.46,0,0,1-2.66,1.1,3.28,3.28,0,0,1-2.58-1.14,4.79,4.79,0,0,1-1-3.28v-21a4.62,4.62,0,0,1,.91-3.11,3.14,3.14,0,0,1,2.48-1,3.36,3.36,0,0,1,1.73.45A3.22,3.22,0,0,1,25.58,16,4.81,4.81,0,0,1,26.05,18.23Z"/></g></g></svg>