<svg height="2rem" width="2rem" xmlns="http://www.w3.org/2000/svg" viewBox="0 -15 50 50"><defs><style>.cls-1:hover{fill:#419cd6;}</style></defs><title>lkd</title><g id="Layer_2" class="cls-1" data-name="Layer 2"><g id="Layer_1-2" data-name="Layer 1"><path d="M7.28,13.65v21a4.73,4.73,0,0,1-1,3.31A3.42,3.42,0,0,1,3.6,39.11,3.27,3.27,0,0,1,1,38a4.8,4.8,0,0,1-1-3.28V13.86a4.65,4.65,0,0,1,1-3.25A3.35,3.35,0,0,1,3.6,9.52a3.47,3.47,0,0,1,2.64,1.09A4.25,4.25,0,0,1,7.28,13.65Z"/><path d="M21.41,13.54v.88a12.72,12.72,0,0,1,4.2-3.72,11.21,11.21,0,0,1,5.24-1.18A10.38,10.38,0,0,1,36,10.77a8,8,0,0,1,3.39,3.54,8.4,8.4,0,0,1,.93,2.88,28.56,28.56,0,0,1,.22,3.95V34.68a4.87,4.87,0,0,1-1,3.31,3.59,3.59,0,0,1-5.24,0,4.76,4.76,0,0,1-1-3.28V22.55a12,12,0,0,0-1-5.5c-.66-1.27-2-1.91-4-1.91a5.94,5.94,0,0,0-3.55,1.16,6.65,6.65,0,0,0-2.34,3.19,22.51,22.51,0,0,0-.54,6.08v9.11a4.73,4.73,0,0,1-1,3.32,3.46,3.46,0,0,1-2.66,1.11A3.26,3.26,0,0,1,15.6,38a4.76,4.76,0,0,1-1-3.28v-21a4.62,4.62,0,0,1,.91-3.11,3.14,3.14,0,0,1,2.48-1A3.36,3.36,0,0,1,19.7,10a3.17,3.17,0,0,1,1.24,1.36A4.78,4.78,0,0,1,21.41,13.54Z"/>
<circle cx="3.59" cy="3.59" r="3.59"><animate attributeName="cy" values="0;-12;0" dur="1s" repeatCount="indefinite" /></circle></g></g></svg>