<svg xmlns="http://www.w3.org/2000/svg" viewBox="0 0 4692.67 3853.78"><defs><style>.cls-1{fill:#f9e8e3;}.cls-2{fill:#29357b;}.cls-3{fill:#fff;}.cls-4{fill:#ccd4ed;}.cls-5{fill:#5f71b3;}.cls-6{fill:#8995cb;}.cls-7{fill:#f4dce6;}.cls-8{fill:#f2d5d0;}.cls-9{fill:#314495;}.cls-10{fill:#f8d1c1;}.cls-11{fill:#6374b7;}.cls-12{fill:#3b4999;}.cls-13{fill:#f9cfb4;}.cls-14{fill:#4a4092;}.cls-15{fill:#f5d2c6;}.cls-16{fill:#e2c3df;}.cls-17{fill:#f9cdbc;}.cls-18{fill:#f6ccb1;}.cls-19{fill:#f7cfc1;}.cls-20{fill:#293579;}.cls-21{fill:#6c7ab7;}.cls-22{fill:#dddeee;}.cls-23{fill:#efcfc3;}.cls-24{fill:#6876b7;}.cls-25{fill:#6575b6;}.cls-26{fill:#434d9a;}.cls-27{fill:#f2d6c3;}</style></defs><title>mobile-girl-man</title><g id="Layer_2" data-name="Layer 2"><g id="back"><path class="cls-1" d="M487.09,3827.41l3676.59,24.51s398.3,61.28,484.09-520.85,24.51-827.23,12.25-906.89-306.38-692.43-606.64-796.6S2006.75,1076.1,2006.75,1076.1s-821.11,79.65-943.66,134.8-386-12.25-496.34,190-183.83,490.21-183.83,674,61.27,330.9-85.79,527S-58.28,3024.69,15.26,3184s30.63,196.09,153.19,361.53S487.09,3827.41,487.09,3827.41Z"/></g><g id="mobile"><path class="cls-2" d="M1390,1940v668q0,489.22.3,978.46c.19,87.46,34.53,157.59,107,210.9,42,30.85,86.86,36.23,134.82,36.24q785.39.23,1570.76,0c17.73,0,35.49-1.2,53.19-2.5,55.94-4.1,97.46-37,131-76.26,44.63-52.35,60-116.36,59.95-185.89q-1-1629.21-.49-3258.42c0-12.55.37-25.12-.24-37.63-4.37-89.64-63.69-190.13-146.63-213.21a373.67,373.67,0,0,0-98.48-13.24Q2418.95,45.27,1636.7,46c-19.82,0-41.29-2.7-59.12,3.77-37.56,13.63-80.12,25-108.23,50.79-59.21,54.37-80.2,127.12-80,208.67Q1391.26,1124.65,1390,1940Z"/><path class="cls-3" d="M3383.49,634.51V3111.15H1453V634.51Z"/><path class="cls-3" d="M2549.26,3473.78c-.45,79.42-58.19,142.9-130.43,143.41-72.4.5-132.72-66.06-131.66-145.3,1-77.17,65.43-149.54,132-148.32C2486.57,3324.82,2549.69,3397.7,2549.26,3473.78Z"/><rect class="cls-3" x="1994.1" y="309.34" width="581.53" height="60.06" rx="30.03"/><path class="cls-3" d="M2734.73,340.11c-.29-44.14,30.84-77,69.93-79.6,42.76-2.83,70.62,48.5,70.24,79.9-.49,40.06-33.64,77.73-68.94,78.48C2767.64,419.71,2735,383.64,2734.73,340.11Z"/><rect class="cls-4" x="1648.13" y="1725.75" width="1593.19" height="621.88" rx="12"/><rect class="cls-5" x="1648.13" y="2527.78" width="636.74" height="116.43" rx="12"/><rect class="cls-6" x="1648.13" y="2828.03" width="1593.19" height="67.96" rx="12"/><path class="cls-2" d="M1665.2,911.54c9.9-1.73,32.17-3.71,52.71-3.71,25.49,0,39.35,2.47,51.72,8.66,12.62,5.69,22.27,17.07,22.27,33.65,0,14.6-8.91,28.21-28.46,35.14v.5c18.81,4.94,34.4,19.05,34.4,41.32,0,15.84-7.92,28-19.06,36.38-13.11,9.4-34.39,14.59-69.28,14.59a324.27,324.27,0,0,1-44.3-2.72Zm39.1,63.1h14.11c22.76,0,33.65-7.67,33.65-19.8,0-12.86-10.89-18.55-29.2-18.55-9.9,0-15.1.49-18.56,1.23Zm0,73.74c4.21.74,9.4.74,16.83.74,18.56,0,34.89-6.18,34.89-23.75,0-16.83-16.09-22.77-36.87-22.77H1704.3Z"/><path class="cls-2" d="M1855.49,1027.84c1.24,14.6,18.31,22,36.87,22,13.86,0,25.24-1.49,36.87-5.45l5.2,26.23c-13.86,5.69-29.7,8.41-47.51,8.41-43.56,0-69-24.74-69-62.35,0-27.22,18.56-64.59,65.32-64.59,43.8,0,58.4,33.9,58.4,61.62a61,61,0,0,1-1.48,14.1Zm49.24-26.72c0-6.93-4-23.51-23.5-23.51-17.82,0-25,14.1-26.23,23.51Z"/><path class="cls-2" d="M1965.36,1042c7.67,4.7,23.75,9.89,35.63,9.89,12.62,0,17.57-3.71,17.57-9.65,0-6.18-4-9.15-19.3-13.11-26.73-7.42-37.86-21.53-37.62-36.62,0-23,20.3-40.34,52.46-40.34,15.59,0,29.45,3.71,37.12,7.43l-6.68,26.72c-5.69-3-17.82-7.42-29.45-7.42-9.65,0-15.34,3.21-15.34,9.65,0,5.94,5.45,8.91,21.78,13.36,24.5,7.18,35.14,18.56,35.38,37.61,0,21.78-17.57,39.59-55.67,39.59-17.57,0-32.42-4-43.06-9.15Z"/><path class="cls-2" d="M2125.21,921.93v33.16h28.21v29.45h-28.21v39.84c0,14.85,3,22.52,15.59,22.52,6.18,0,8.41-.25,12.12-1.24l.5,29.69c-5.2,2-14.85,3.71-26,3.71-13.11,0-24-4.94-30.19-11.38q-10.38-11.51-10.39-36.37V984.54h-16.58V955.09h16.58v-23Z"/><path class="cls-2" d="M2205.38,955.09l10.88,48.75c2.73,12.12,5.2,26,7.67,40.58h.5c2.47-14.35,6.43-28.46,9.65-40.33l13.36-49h31.43l12.62,47.26c3.71,13.86,7.18,27.72,9.9,42.07h.49a413.83,413.83,0,0,1,7.92-42.56l11.14-46.77h38.35l-38.85,121h-37.86l-12.12-42.57a344.07,344.07,0,0,1-8.42-37.61h-.49a289.83,289.83,0,0,1-8.17,37.37l-12.62,42.81H2202.9l-37.12-121Z"/><path class="cls-2" d="M2404.57,1027.84c1.24,14.6,18.31,22,36.87,22,13.86,0,25.24-1.49,36.87-5.45l5.2,26.23c-13.86,5.69-29.7,8.41-47.51,8.41-43.55,0-69-24.74-69-62.35,0-27.22,18.56-64.59,65.32-64.59,43.8,0,58.4,33.9,58.4,61.62a61,61,0,0,1-1.48,14.1Zm49.24-26.72c0-6.93-4-23.51-23.5-23.51-17.82,0-25,14.1-26.23,23.51Z"/><path class="cls-2" d="M2514.44,898.92h39.34v71.27h.5c7.67-10.89,21.77-18.07,40.33-18.07,31.18,0,55.68,23.26,55.43,61.62,0,44-31.43,65.32-60.87,65.32-15.59,0-31.43-5.69-40.34-20.78h-.49l-1.49,17.82h-33.4c.49-7.18,1-21.78,1-36.38Zm39.34,123.23a25.89,25.89,0,0,0,.5,6.19,26.63,26.63,0,0,0,26,20c17.57,0,29.45-12.12,29.45-33.16,0-18.06-9.65-33.4-29.45-33.4a26.62,26.62,0,0,0-26,21,52.23,52.23,0,0,0-.5,6.68Z"/><path class="cls-2" d="M2674.78,898.92h39.35v71.27h.49A42.23,42.23,0,0,1,2731,957.07a44.16,44.16,0,0,1,20.54-5c24.75,0,46.28,15.84,46.28,54.19v69.79h-39.35V1012c0-17.57-6.68-28.46-22-28.46a22.29,22.29,0,0,0-21,13.86c-1.23,2.47-1.23,5.19-1.23,7.91v70.78h-39.35Z"/><path class="cls-2" d="M2937.57,1046.15c0,12.13.74,23.51,2,29.95h-35.63l-2.23-12.13h-1c-8.41,9.9-21.77,15.09-37.36,15.09-26.48,0-41.33-18.55-41.33-37.11,0-31.43,28.21-47,76.22-47v-1.24c0-5.19-2.72-15.09-24-15.09-13.11,0-27.71,4.7-36.12,9.65l-7.18-24.75c8.91-5.19,26.23-11.38,50-11.38,41.57,0,56.66,23,56.66,52.71Zm-38.11-26.72c-23-.25-38.35,5-38.35,18.56,0,8.91,6.19,13.85,16.08,13.85,10.4,0,19.06-7.17,21.53-15.09a28.79,28.79,0,0,0,.74-6.68Z"/><path class="cls-2" d="M2969.74,898.92h39.34V1076.1h-39.34Z"/></g><g id="girl"><path class="cls-7" d="M4180.78,1156.09l15.78,36.38c3,6.9,6.48,14.34,13.23,17.66s14.87,1.51,22.2-.39c44-11.37,89.3-23.33,125.73-50.55,15.68-11.7,36.71-38.21,56.17-40.2-2.13-18.31,22.57-16.42,20.43-34.72-.83-7.12-11.41-25.45-16.34-30.64-5.48-5.77-14.3-18.6-14.3-26.56,0-8.17-10.46-12.11-14.3-16.34-2.77-3.05-7.89-1.65-11.64.07-32.65,14.93-85,45.68-111.94,59.25-35.52,17.9-71.63,39-92.58,72.8C4173.22,1146.17,4179.46,1153,4180.78,1156.09Z"/><path class="cls-8" d="M4126.27,1175.34c2.95-12.57,10.38-24.74,22.07-30.22s27.73-2.21,34,9.08c3.81,6.88,4.09,16.11,10.38,20.82,5.39,4,12.89,3,19.5,4.25,8.38,1.64,15.91,7.81,18.5,16s-.29,17.92-7.28,22.83c-5,3.53-11.44,4.38-17.58,4.86a217.23,217.23,0,0,1-62-4.09c-10.8-2.29-18.48-1.45-19.28-13.3C4123.89,1195.51,4124,1185.16,4126.27,1175.34Z"/><path class="cls-9" d="M3910.84,3691.78a418,418,0,0,0-7.74,154.71c124.76,7.61,249.28,11.13,373.59-2,7.72-28.16,14.49-65.2-5.49-86.49-10.06-10.71-24.73-15.5-38.75-19.88l-191.64-60c9.73,33-16.36,68.79-50,76S3915.51,3725.85,3910.84,3691.78Z"/><path class="cls-10" d="M4006.05,3582.38c12.08,25,24.27,50.42,29.55,77.71s2.94,57.17-12.39,80.35-45.51,37.52-72,29.15c-31.63-10-46.59-45.2-57.64-76.47L3784.27,3384c38.52-11.48,78.38-18.35,116.9-29.84,8.37-2.49,17.75-4.91,25.5-.88,9,4.68,11.93,15.92,14,25.86C3958.3,3461.62,3969.39,3506.42,4006.05,3582.38Z"/><path class="cls-11" d="M3439.6,1578.56l-8.17,1813.79s228.76,49,379.91,12.26,269.62-44.94,281.87-69.45-257.36-1789.28-257.36-1789.28Z"/><path class="cls-12" d="M3300,1051.12c-58.12-5.83-108.84-44.63-142.78-92.16s-53.64-103.5-72.92-158.63c-14.58-41.67-29.35-84.7-26.79-128.77,3.74-64.4,45-122.16,97.24-160s114.78-58.47,176.91-75.83c51.63-14.43,105.05-27.55,149-58.2,36.12-25.17,63.58-60.62,90.44-95.5,31.4-40.78,63.19-82.21,82.42-129.94,10.15-25.22,16.73-52,30.06-75.71s35.52-44.69,62.59-47.19c57.35-5.29,97.42,70.55,154.91,67C3951,93.13,3976.92,33.94,4022,12.42c50.1-23.93,112,6.14,144.74,51s45.06,104.22,32.71,158.44c-9.21,40.41-31,76.78-44.19,116.08-34.46,102.53-8.8,218.14-44.56,320.24C4081,743,4011.21,809.06,3932.63,852.71s-166.33,67.56-253.1,91.09c-142.05,38.5-238.82,70.81-380.87,109.32"/><path class="cls-13" d="M3634.86,608.11a1400.24,1400.24,0,0,1,60.6-129.17c26.29-49.32,28.13-111.66,40-166.28,3.63-16.67,7.68-34.2,19.25-46.74,9.4-10.18,22.61-15.79,35.4-21.11l174.81-72.66c15.1-6.28,30.79-12.67,47.13-12.1,26.48.93,49.66,20.75,60.71,44.83s11.76,51.65,8.91,78-9,52.26-11.07,78.67c-2.42,31.16,1,63,12.19,92.22,5,13,11.51,27,7.2,40.18-5.85,17.95-28.11,24.12-47,24.43s-39.48-2-55,8.8c-16.5,11.48-21.2,33.76-34.19,49.11-15.35,18.13-43,24.55-64.79,15s-35.81-34.23-32.88-57.81c-11.92-1.72-23.52,6.41-29.61,16.8s-7.82,22.69-9.44,34.62q-6.41,47.34-12.83,94.69c-3.1,22.85-8.79,49.4-29.72,59.09-17.95,8.33-39.14,0-55.84-10.66C3675.89,700.72,3648.88,656.93,3634.86,608.11Z"/><path class="cls-10" d="M3682.66,2816.35c-52.51,65.73-102.71,119.17-171.57,167.49-20,14-34.47,56.16-30.1,80.14,3.11,17,20.56,28.7,37.83,30s34.12-5.62,49.22-14.12c50.27-28.28,87.95-74,124.42-118.71,44.36-54.38,98-114.12,140.75-169.79,3.69-4.81,7.55-10.18,7.3-16.24-.38-9.15-10-15.25-19.06-16.7-26.76-4.27-50.43,17-67.38,38.14S3709.09,2810.38,3682.66,2816.35Z"/><path class="cls-14" d="M3556,2981.8c-14.1,34.33-13.93,16.35-24.82,51.83-4.39,14.3-7.28,32.75,4.73,41.65,14.93,11.07,42.09-2.07,51.91,13.71,4.55,7.3,1.81,17.28-3.78,23.82s-13.46,10.6-20.76,15.16a148.52,148.52,0,0,0-57.29,66.75c-7.68,17.82-12.07,37.57-24.32,52.61s-36.6,23-51,10q-2.45-150.61-4.9-301.24c-.28-17.57.3-37.32,13-49.44s32.71-11.77,50.17-9.33c22.06,3.08,45.11,8.84,60.83,24.63s20.38,44.34,4.43,59.89"/><path class="cls-15" d="M4102.52,1214.26c6.52-7.83,18.16-8.36,28.35-8.12,55.36,1.31,113.42,6.45,163.61-16.93,16.83-7.85,33.34-19,51.9-18.53,1.36,11.47-2.78,23-9.17,32.67s-14.93,17.58-23.39,25.44c-17.82,16.58-35.89,33.34-57.26,45-24.15,13.17-51.41,19.24-78.27,25.16-7.61,1.67-15.59,3.35-23.1,1.28-12.3-3.38-19.67-15.44-27.57-25.45-9.81-12.44-21.66-20-34-29.48-7.61-5.84-3.16-6,.72-13.53C4097.35,1226,4098.25,1219.38,4102.52,1214.26Z"/><path class="cls-6" d="M3630.32,2792.07c-3-42,31.85-76,63.81-103.37,55.19-47.32,114.7-118.8,169.88-166.12a2621.5,2621.5,0,0,1-365.7-465.52c-45.44-73.7-87.65-150.67-109.53-234.45s-22-175.7,14.66-254.14c98.86,40.32,232.91,44.43,333.5,8.66,32.84-11.67,65.89-27.53,100.65-24.93,51.46,3.85,90.48,46.2,123.86,85.56q146.24,172.35,292.45,344.72c82.29,97,165.89,196.12,214.1,313.82,19.91,48.61,33.55,100.53,32.67,153-1,62.65-22.51,122.94-44.1,181.76-56.5,154-118.43,311.46-232.33,429.45-45.31,46.93-105.24,88.78-170.12,82.08-56.67-5.86-102.47-47-143.94-86C3812.66,2964.71,3727.85,2884,3630.32,2792.07Z"/><path class="cls-16" d="M3985.41,1541.58c-2.06-40.84-2.12-81.2,19.38-118.52a164.08,164.08,0,0,1,93.77-74.35c14-4.24,28.86-6.64,41.67-13.79s23.54-20.76,21.68-35.31c-1.53-11.91-10.84-21.2-20.15-28.78-14.93-12.14-35.37-21.39-52.73-29.68-18,3.23-36.27,6.48-54.4,4.31s-36.41-10.6-46.13-26.06c-9.43-15-9.46-33.84-9.19-51.55l2.37-158.74c1-69.35,1.47-141.56-28.4-204.15-21.28-44.58-56.39-80.8-90.88-116.15-9.48-9.72-19.5-19.77-32.41-24-38.81-12.61-81.25,32.83-118.24,15.6-19.89-9.26-28.36-33-45.05-47.21-30.47-26-77.28-13.56-113,4.59-97.93,49.81-177.9,134.06-222.55,234.45-47.06,105.8-54.61,224.42-58.25,340.15-2,63.23-4.16,124.82-6.22,188-.57,17.57-1.1,35.52,4,52.35s16.93,32.64,33.75,37.76c47,14.31,67.17,81.71,112.65,100.35,29.86,12.23,63.51.66,95.76-.56,54-2,104.78,25.44,158.52,30.83,53.42,5.35,106.2-11.27,158.67-22.62s110.08-16.84,157.37,8.54C3988.18,1585.4,3986.51,1563.42,3985.41,1541.58Z"/></g><g id="Layer_5" data-name="Layer 5"><rect class="cls-6" x="1619.24" y="1493.26" width="1335.83" height="117.3" rx="12"/></g><g id="man"><path class="cls-17" d="M697.83,288.93c39.6,7.22,70.88,46.09,69.46,86.32-.87,24.37-12.09,47.06-17.31,70.88-2.33,10.61-3.42,21.87-.09,32.2s12,19.54,22.73,20.88c8.48,1.06,16.72-2.68,25-4.95s18.25-2.64,24.11,3.59c4.07,4.34,5,10.71,7.89,15.9,5.55,9.93,17.93,14.4,29.28,13.76s22-5.44,32.34-10.17c49.45-22.59,91.28-65.44,111.45-115.93a228.44,228.44,0,0,0,3.07-159.57c-.91-2.56,1.2-8.64,1.2-11.36-22.08-25.24-45-62.79-71.9-82.75s-59.26-34.28-92.79-34.1c-42.75.24-83.21,24.62-109,58.74S701.22,246.3,697.83,288.93Z"/><path class="cls-18" d="M1041.09,425c8.22,33.55,2.4,69.68-6.78,103-12.93,46.9-55.57,102.16-45.78,149.82,8.86,43.11,63.23,62.13,107.24,62.14s85.22-24.67,114.49-57.53c20.48-23,36.82-53.74,29.59-83.66-5.34-22.06-22.27-39-36.77-56.5-60.18-72.43-86.16-172.11-69-264.7,2.33-12.58,5.37-25.81,1.16-37.9-13.39-38.41-85.6-32.18-98.88,2.7-8.59,22.55-11.92,60.33-11.07,84.13C1026.48,359.31,1033.47,393.88,1041.09,425Z"/><path class="cls-19" d="M686.18,3622.33c-12.24,17.72-27.61,33.31-38.08,52.13s-15.44,42.67-5.37,61.72a210.13,210.13,0,0,0,93.19-.34c16.72-3.89,34-10.59,44-24.57,8.56-12,10.38-27.36,11.93-42l12.49-117.88c.92-8.66,1.66-18.1-3.11-25.38-13.92-21.24-62.69-14.57-75.67,4.09C707.4,3556.18,705.39,3594.53,686.18,3622.33Z"/><path class="cls-19" d="M1233.64,2936.86c23.19,8,51.5,43.26,72.29,54.51s38.21,28.19,40.08,47.74-16.4,40.64-41.73,41.92c-17.7.89-33.79-7.28-48.35-15.11l-100.12-53.8c-14.18-7.62-28.65-15.46-38.64-26.34-19.13-20.82-24.77-93.24,14.34-93.86C1161.36,2891.46,1206.67,2927.59,1233.64,2936.86Z"/><path class="cls-20" d="M1407.7,1802.35c11.59,104.31-11.31,209.71-45.72,308.86s-80.3,193.93-117,292.25c-55.13,147.7-89.24,302.83-106.84,459.49-20,178-21,365.81-108.41,522.17-21,37.53-21.42,91.38-32,133.05-3.61,14.22-7.82,29.41-19.08,38.8-16.12,13.43-39.89,10-60.44,5.75l-261.05-53.45c15.73-203.35,137.32-393.61,119.71-596.81-15.29-176.42,51.73-353.53,113.43-519.52,31.34-84.34,87.49-161.69,144.57-231.24q70.86-86.35,142.66-171.92c65.32-77.84,134-157.41,225.76-201.17C1404.07,1792.13,1407.3,1798.77,1407.7,1802.35Z"/><path class="cls-6" d="M1007.36,687.81c-36.3,12.09-64.56,42.08-82,76.12S900,836,893.89,873.8C870.11,1020.68,870,1170.24,870,1319q0,215.54,0,431.06c70.9-22.81,146.32-14.24,220.72-11l314.14,13.67c-.45-29.56,11.86-68.12,11.4-97.69-2.23-145.92-4.44-292.3,11.58-437.36,17.08-154.59,54.66-312.14,18.62-463.43-75.8-48.82-130.11-130.11-215.22-159.84-32.45,66.11-100.89,117.76-174,126.5-11.31,1.35-23.35,1.71-33.44-3.57S1002.85,698.27,1007.36,687.81Z"/><path class="cls-21" d="M974.84,685.38c-54.46,48.85-81.17,122.37-89.75,195S884,1026.49,887,1099.58c9.66,233-26.11,465.14-61.76,695.55,34.36-12.63,70-26.07,95.32-52.52s36.84-70,16.15-100.16c0-13.62,3.8-29.84,3.8-43.46,0-69.12,20.15-144.41,11.27-213s-18.44-140.44,6.29-205c26.11-68.14,2.16-149,1.24-221.94-.52-40.91-1-82.08,5.66-122.44,8.48-51.31,28.3-99.95,48-148.09C1004.6,685.4,983.22,688.56,974.84,685.38Z"/><path class="cls-22" d="M441.09,1132.13c-3.86-2.28-7.85-4.69-10.36-8.41-5.72-8.49-1.7-19.79,1.26-29.59a122.93,122.93,0,0,0,4.71-46.86c-.92-9.88-2.76-20.89,3.17-28.85,4.79-6.42,13.57-8.79,21.54-7.94s15.35,4.39,22.56,7.88l79,38.26c19.82,9.6,39.77,19.28,57.41,32.46,21.42,16,38.81,36.65,56,57.12,9.34,11.12,19.27,24.13,17.33,38.52-1.36,10.11-8.63,18.67-17.32,24s-18.75,7.93-28.68,10.27c-15.17,3.58-31.23,6.73-46.15,2.2s-27-15.33-40.75-22.32c-9.25-4.73-19.15-7.9-28.32-12.82C501.38,1169.4,471.45,1150.09,441.09,1132.13Z"/><path class="cls-23" d="M659.71,1182c1-11,4.84-23.74,15.32-27.28,6.23-2.1,13.3-.13,18.62,3.75s9.15,9.44,12.5,15.11c11.63,19.69,18.6,41.87,22.71,64.37,2,10.76,2.67,23.49-5.36,30.91-16.78,15.49-43.81-7-53.39-21C658.47,1230.75,658,1201.5,659.71,1182Z"/><path class="cls-12" d="M737.48,255.39c-9.22,27.14-35.62,47.56-64.2,49.66-5.58.41-11.81-.07-15.7-4.09-3-3-3.89-7.44-4.71-11.6q-6.25-31.83-12.5-63.65c-6.87-35-13.71-71.48-4.61-106S675,53.46,710.65,55c-3.49-7.81,3.77-18.38,9.1-25.07s13-11.06,20.74-14.73c23.26-11,49.27-17.26,74.87-14.53s50.67,15.07,66,35.77c15.69-6.06,33.34-10,50-12.55,7-1.05,14.36-1.73,20.8,1.11,12.64,5.58,16.15,21.54,18,35.23,32.18-1.67,66.55,1.56,98.74-.12,9.08-.47,18.63-.85,26.77,3.2,12.31,6.11,18.08,22.73,12.21,35.16,13.05-5.57,30.13,5,39,16s12.52,25.32,15.93,39.1q11.81,47.63,23.6,95.24c5.41,21.87,10.81,45.07,4.07,66.56s-40,45.86-61,37.65c-8.09-13.33.76-36.38,1.73-51.93s3.29-31.33.2-46.61-13.08-30.42-28.23-34.12c-23.85-5.83-52.25,7-62.43,29.37s-8.21,48.11-5.63,72.53a2190.18,2190.18,0,0,0,34,216.71c-23.52,32.09-51.64,63.16-86.15,83s-82,22.88-111.65-3.64c-24.86-22.21-13.22-66.58-35.85-91.06-8.88-9.62-6-37.55,9.61-52.48,18.43-17.66,53.89-4.3,71.32-22.95,16-17.11,41.63-27.34,50.39-49.06a89.77,89.77,0,0,0-.87-68.41c-4.07-.57.17-3.23-3.89-3.8,30.86-17.51,35.46-53.33,25.12-87.27s-40.21-59.73-73.83-71.09a144.24,144.24,0,0,0-115.15,10.66C763.49,202.27,750.26,217.8,737.48,255.39Z"/><path class="cls-6" d="M1238.11,616.39a308.8,308.8,0,0,1,177.16,105c44.14,53.2,68.86,119.43,92.66,184.33,39.82,108.58,79.68,219.27,85.82,334.76s-26.21,238.5-111.37,316.74c-57.54,52.86-136.67,81.48-214.71,77.66-79-3.87-152.68-38.91-223.79-73.53C950.75,1516,857.54,1470.1,770.79,1413.5c-23.71-15.47-47.44-32.24-63.5-55.55s-23.2-54.67-11.31-80.36,46.42-40.65,70.61-25.94c72.16-16.55,140.85-9.41,211.6,12.37s140.27,49.88,213.74,59c26,3.23,54.21,3.58,76.5-10.28,23.15-14.39,35.41-41.52,40.69-68.27a196.45,196.45,0,0,0-22.81-135.66"/><path class="cls-24" d="M1259.37,1102.82c9,39.07-6.93,82.78-39,106.83-10.92,8.18-32,24.49-33.69,38-.68,0-5.66,3.77-6.34,3.77a197.07,197.07,0,0,1-116.24,33.81c37.49,15.27,78.64,29.74,119,32.85s83.92-8.07,110.55-38.56c22.87-26.18,30.27-63.9,23.13-97.93S1285.54,1125.7,1259.37,1102.82Z"/><path class="cls-25" d="M1373.28,1725c12.3,1.3,26.16,1.88,35.41-6.32,9.7-8.6,10.36-23.25,10.31-36.2-.11-26.13-1.68-55.64-21.33-72.87s-48.61-15-74.53-13.6a578.5,578.5,0,0,1-195.33-23.12c-30.9-9.18-70.76-29.7-102.92-16.43-23.22,9.59-40.44,32.31-19.37,51.7,26.76,24.62,77.22,39.48,110.63,52.89a965,965,0,0,0,117.47,38.63A956,956,0,0,0,1373.28,1725Z"/><path class="cls-12" d="M490.35,2132.53c-43.16,54.15-84.69,112.83-98.29,180.73-20.67,103.18,26.84,208.06,86.89,294.47,120.18,172.91,291.74,302.92,466.44,420.47,21,14.15,44.43,28.77,69.65,26.27,22.7-2.25,41.64-18,57.27-34.63a341.85,341.85,0,0,0,91.11-207.53,3335.63,3335.63,0,0,1-337.64-356.14c-7.73-9.46-15.63-19.4-18.46-31.28-4.55-19.11,5.36-39.34,20-52.43s33.39-20.48,51.7-27.58c95.23-36.92,191.17-73.59,279.12-125.54s168.37-120.48,219.59-208.84,70.5-198.26,36.94-294.73c-93.4,33.54-196.12,22.83-294.73,11.69l-88.69-10c-23.33-2.63-60.6-14.49-83.29-8.29-17.66,4.83-36.84,25.09-51.61,35.78q-31.8,23-62.7,47.25a2082.77,2082.77,0,0,0-230.13,209.94C564.23,2043.76,524.74,2086.68,490.35,2132.53Z"/><path class="cls-26" d="M453.07,3836.29c131.28-16.8,264.16-14.47,396.48-12.11-4.79-18.59-1.49-38.18,1.34-57.17s5.07-38.94-1.62-56.93-25.2-33.07-44-29.36c-34.23,6.73-39.36,52.89-77.28,56.12-28.52,2.43-50.82-14.27-69.43-33.4-15.64-16.08-28.47-32.58-52.56-34.25-36.53-2.53-80.73,23.29-106.47,47.11C467.05,3746.34,445.34,3791.48,453.07,3836.29Z"/><path class="cls-27" d="M628.17,1194.67c-19.9-1.86-41.48,4.69-59.1-4.74-5.74-3.07-12-7.87-18-5.32-4.38,1.86-6.33,7-7.21,11.62-4.32,22.94,6.71,46.61,23.07,63.25s37.54,27.54,58.33,38.14c23.79,12.13,50.7,24.57,76.22,16.69l30-53.9c5.74-10.34,3-16.94-7.25-21a187.24,187.24,0,0,1-30.59-15.17C673.27,1211.78,652.68,1197,628.17,1194.67Z"/><path class="cls-20" d="M1300.74,3075.15c-3.68,6-8.29,12.5-7.12,19.48,1.49,8.93,11.22,13.4,19.07,17.9a77.66,77.66,0,0,1,36.6,49.3c3,13,2.61,26.73,7.51,39.08s18,23.26,30.66,19.31l2.49-236.89c-17.87-1.61-71-12-80.12,10.36-4.22,10.39,4,27.54,3.47,39.07A88.84,88.84,0,0,1,1300.74,3075.15Z"/></g></g></svg>