<svg xmlns="http://www.w3.org/2000/svg" viewBox="0 0 183.51 183.1"><title>pencil_for_blog</title><g id="Layer_2" data-name="Layer 2"><g id="Layer_1-2" data-name="Layer 1"><path d="M158.06,32.76a2.49,2.49,0,0,1,1.44.92c2.94,3,5.88,5.94,8.82,8.93Q104.2,106.72,40.08,170.87a2.21,2.21,0,0,1-1.58.87,2.12,2.12,0,0,1-1.22-.78l-7.64-7.65a2.22,2.22,0,0,1-.83-1.37,2.25,2.25,0,0,1,.9-1.63L156.15,33.79a2.62,2.62,0,0,1,1.91-1"/><path d="M6.57,154.09q11.29,11.08,22.4,22.4-14.46,3.38-29,6.61c2.18-9.66,4.36-19.35,6.57-29"/><path d="M174.37,36.63a2,2,0,0,1-1.51-.81q-12.65-12.66-25.3-25.34a2,2,0,0,1-.78-1.35,1.92,1.92,0,0,1,.69-1.24,27.33,27.33,0,0,1,8.35-6.23,20,20,0,0,1,18.62,1.43,20.27,20.27,0,0,1,9.07,16.34,20.7,20.7,0,0,1-8.29,16.78,1.94,1.94,0,0,1-.85.42"/><path d="M141.78,15.72q3.9,4,7.83,7.9a2.1,2.1,0,0,1,.78,1.31,2.25,2.25,0,0,1-.85,1.49Q86.18,89.82,22.8,153.19a2.38,2.38,0,0,1-1.52.87,2.42,2.42,0,0,1-1.54-.87c-2.55-2.53-5.07-5.07-7.62-7.6a2.08,2.08,0,0,1-.8-1.47,2.05,2.05,0,0,1,.76-1.28L139.14,15.77a2,2,0,0,1,1.4-.78,2,2,0,0,1,1.24.73"/></g></g></svg>