<svg   xmlns="http://www.w3.org/2000/svg" viewBox="0 35 50 50"><style>.cls-2{fill: #555555;}.cls-1:hover{fill: rgb(185, 43, 39);}</style><g><path class="cls-1 cls-2" d="M24.4,31.9 C37.1,31.9 49.1,41.8 49.1,56.2 C49.1,64.3 45.3,70.9 39.9,75.3 C41.5,77.9 43.5,79.7 45.9,79.7 C48.7,79.7 49.9,77.5 50.1,75.7 L50.1,75.7 L53.7,75.7 C53.9,78.1 52.7,87.3 42.7,87.3 C36.5,87.3 33.3,83.7 30.9,79.7 C28.9,80.1 26.7,80.5 24.5,80.5 C12.2,80.5 0,70.6 0,56.2 C0,41.8 12.2,31.9 24.4,31.9 Z  M24.5,35.8 C15.3,35.8 11.3,42.7 11.3,56.1 C11.3,69.5 15.3,76.4 24.5,76.4 C26.2,76.4 27.7,76 28.9,75.6 C27.1,71.4 24.7,67.4 20.1,67.4 C19.3,67.4 18.5,67.6 17.7,68 L17.7,68 L16.3,65.2 C18.3,63.5 21,62.2 24.7,62.2 C30.5,62.2 33.5,65 35.9,68.6 C37.3,65.6 37.9,61.4 37.9,56.1 C37.9,42.7 33.9,35.8 24.5,35.8 Z"></path></g></svg>