<svg width="2em" height="2em" viewBox="0 0 30 30" xmlns="http://www.w3.org/2000/svg"><style>.cls-1:hover{fill:#419cd6;}</style><title>twitter</title><path class="cls-1" d="M7.35,23.33a8.57,8.57,0,0,0,4.9-1.76c-2.54-.75-3.6-1.59-3.94-3.1a7.28,7.28,0,0,0,1.63-.14c-.53-.28-1-.48-1.39-.75a4.39,4.39,0,0,1-1.87-3c-.09-.44-.1-.79.53-.49a2.36,2.36,0,0,0,1.28.24A4.59,4.59,0,0,1,7.24,8.49,12.73,12.73,0,0,0,15,13c.19,0,.37-.12.53.05.9.23.86.23.83-.64a4.28,4.28,0,0,1,2.26-4.11,4.07,4.07,0,0,1,4.78.29,1.59,1.59,0,0,0,1.75.24l1.63-.65a4.46,4.46,0,0,1-1.63,2.21,8.14,8.14,0,0,0,2.12-.43,8.19,8.19,0,0,1-1.78,2c0,.09,0,.13-.14.12a7.23,7.23,0,0,0-.1,1.8c.05.18.11.37-.05.54a15,15,0,0,1-1.87,5A12.06,12.06,0,0,1,16,24.9a12.7,12.7,0,0,1-9.8-1.33C6,23.48,6,23.43,6,23.37s.13,0,.2,0A2.58,2.58,0,0,1,7.35,23.33Z"/></svg>