<svg xmlns="http://www.w3.org/2000/svg" viewBox="0 0 12.4 12.41"><defs><style>.cls-1{fill:#f5f5f5;}.cls-2{fill:#f0efef;}.cls-3{fill:#f5a47f;}.cls-4{fill:#72361d;}.cls-5{fill:#585ea7;}.cls-6{fill:#f4a37e;}</style></defs><title>user-1</title><g id="Layer_2" data-name="Layer 2"><g id="Layer_1-2" data-name="Layer 1"><path class="cls-1" d="M.72,9.1A5.24,5.24,0,0,1,.08,7.22a6.6,6.6,0,0,1,0-2.08A5.9,5.9,0,0,1,1,2.9a6.43,6.43,0,0,1,.87-1.08A5.9,5.9,0,0,1,4.93.13a6.09,6.09,0,0,1,4.88,1,6.06,6.06,0,0,1,2.51,4.06,5.88,5.88,0,0,1-.78,4.07c-.19.21-.34.44-.52.66A7.89,7.89,0,0,1,9.84,11.1c-.1.08-.2.17-.34.1a.9.9,0,0,1-.13-.32A1.23,1.23,0,0,0,8.13,10H7.36c-.11,0-.22,0-.3-.09a1.63,1.63,0,0,1,0-.73c0-.11.14-.15.23-.2A2.7,2.7,0,0,0,8.62,7.54a2.43,2.43,0,0,1,.22-.46c.22-.23.15-.53.16-.8a2.91,2.91,0,0,0-.79-2.23.43.43,0,0,1-.16-.3.64.64,0,0,0-.47-.56c-.28-.11-.28-.11-.18-.41a.58.58,0,0,0,0-.18c0-.06,0-.13,0-.17s-.1,0-.14,0a1.55,1.55,0,0,1-.55.18c-.37,0-.4,0-.31-.33-.08,0-.11,0-.15.08a2.36,2.36,0,0,1-.72.45A4.23,4.23,0,0,0,3.77,4.45a2.72,2.72,0,0,0-.46,1.86.9.9,0,0,0,.18.83,1.76,1.76,0,0,1,.19.39A2.65,2.65,0,0,0,5,9c.09.05.2.08.24.2a1.59,1.59,0,0,1,0,.72c-.08.11-.2.09-.31.1H4.11a1.17,1.17,0,0,0-1.17.74,1.79,1.79,0,0,1-.12.24c-.12.15-.24.09-.37,0A6.57,6.57,0,0,1,.92,9.3C.87,9.22.85,9.11.72,9.1Z"/><path class="cls-2" d="M.72,9.1c.11-.12.15,0,.2.06.16.25.32.51.5.74A6.53,6.53,0,0,0,2.58,11c.06.06.11,0,.17,0a4.24,4.24,0,0,0,1.89,1,5.89,5.89,0,0,0,4.7-.67l.21-.11a.9.9,0,0,0,.34-.2,9.76,9.76,0,0,0,1.32-1.33.62.62,0,0,0,.18-.29c0-.07.06-.15.15-.06a6.09,6.09,0,0,1-3,2.62,5.89,5.89,0,0,1-2.3.48,6.16,6.16,0,0,1-3.95-1.35A6.09,6.09,0,0,1,.72,9.1Z"/><path class="cls-3" d="M3.44,7.16a.83.83,0,0,1-.2-.85c.32-.46.39-1,.79-1.46a.41.41,0,0,1,.51-.13,5.06,5.06,0,0,1,.74.36,3,3,0,0,0,2,.33,4.19,4.19,0,0,0,.91-.23.32.32,0,0,1,.45.19,2.43,2.43,0,0,1,.16.37,1.19,1.19,0,0,0,.3.52c0,.3.12.62-.19.85h0c-.28-.23-.45,0-.66.14s-.39.37-.6.54a.38.38,0,0,1-.42.07,2.45,2.45,0,0,0-1.95,0,.36.36,0,0,1-.37-.08c-.27-.23-.55-.43-.8-.67s-.33-.25-.5,0A.16.16,0,0,1,3.44,7.16Z"/><path class="cls-4" d="M9.06,6.26a.39.39,0,0,1-.32-.36v0a1.28,1.28,0,0,0-.29-.62c-.2-.17-.41,0-.61.1a3.26,3.26,0,0,1-2.93-.43c-.16-.11-.39-.1-.56-.22s-.13,0-.17.08a2.33,2.33,0,0,0-.55.88,1,1,0,0,1-.39.64,3.16,3.16,0,0,1,.92-2.46A5.38,5.38,0,0,1,5.88,2.59a2.1,2.1,0,0,0,.55-.43c.09.18.09.18,0,.42a1.27,1.27,0,0,0,1.07-.32.65.65,0,0,1,0,.66c-.06.11,0,.15.07.18.37.09.64.28.64.7,0,.1.08.14.13.19A2.85,2.85,0,0,1,9.06,6.26Z"/><path class="cls-5" d="M9.55,11.19c0,.09-.09.12-.16.16a6,6,0,0,1-6.49-.07c-.1-.06-.18-.13-.15-.26a2,2,0,0,1,.35-.65A1.09,1.09,0,0,1,4,10H5.2c.08,0,.08.11.11.18a.9.9,0,0,0,.82.64A.91.91,0,0,0,7,10.15c0-.08,0-.16.13-.19H8.16a1.23,1.23,0,0,1,1.27.88A3.59,3.59,0,0,1,9.55,11.19Z"/><path class="cls-4" d="M3.44,7.16c.08-.13.25-.18.23-.41l1.25,1a.21.21,0,0,0,.28,0,2.39,2.39,0,0,1,2,0,.34.34,0,0,0,.4-.08c.26-.25.55-.48.81-.73s.24-.24.35,0c0,0,.1.07.15.1a3.4,3.4,0,0,1-1.13,1.7,3.41,3.41,0,0,1-.65.35.46.46,0,0,1-.37.18,3.18,3.18,0,0,1-1.19,0,.59.59,0,0,1-.32-.17A3.08,3.08,0,0,1,3.44,7.16Z"/><path class="cls-3" d="M5.21,9.17a2.82,2.82,0,0,0,1.88,0V10a1,1,0,0,1-.67.84A.94.94,0,0,1,5.2,10Z"/><path class="cls-6" d="M6.13,8.35a2.13,2.13,0,0,1-.79-.11s-.12-.05-.12-.12S5.28,8,5.34,8A2.64,2.64,0,0,1,7,8s.13.05.12.12-.08.1-.14.12A2.21,2.21,0,0,1,6.13,8.35Z"/></g></g></svg>