<svg xmlns="http://www.w3.org/2000/svg" viewBox="0 0 12.4 12.4"><defs><style>.cls-1{fill:#f5f5f5;}.cls-2{fill:#f0efef;}.cls-3{fill:#be7c5e;}.cls-4{fill:#343434;}.cls-5{fill:#585ea7;}.cls-6{fill:#b27458;}</style></defs><title>user-m-2</title><g id="Layer_2" data-name="Layer 2"><g id="Layer_1-2" data-name="Layer 1"><path class="cls-1" d="M.81,9.19A4.41,4.41,0,0,1,.12,7.41,5.85,5.85,0,0,1,0,5.9,6.09,6.09,0,0,1,1,2.85,6.4,6.4,0,0,1,2.84,1,6,6,0,0,1,5.15.09,6.35,6.35,0,0,1,7.86.22a5.88,5.88,0,0,1,2.29,1.21A6,6,0,0,1,12.07,4.2a6.36,6.36,0,0,1-.23,4.6.69.69,0,0,1-.22.33,6.34,6.34,0,0,0-.57.79,5.85,5.85,0,0,1-1.18,1.15c-.1.08-.22.2-.37.08a1,1,0,0,1-.15-.34A1.21,1.21,0,0,0,8.17,10h-.8a.41.41,0,0,1-.32-.08,1.66,1.66,0,0,1,0-.7.11.11,0,0,1,0-.08A.38.38,0,0,1,7.23,9,2.65,2.65,0,0,0,8.77,6.4V6.13a2.55,2.55,0,0,0-.41-1.52.5.5,0,0,1-.06-.5,1.36,1.36,0,0,0-.38-1.17.56.56,0,0,0-.43-.1,1.27,1.27,0,0,1-.89-.28,2,2,0,0,0-1.21-.35.76.76,0,0,0-.51.22,1.41,1.41,0,0,1-1.11.35H3.21c-.18,0-.3.09-.29.28a1.1,1.1,0,0,1-.41.86,1.93,1.93,0,0,0-.28.36.51.51,0,0,0,0,.64.68.68,0,0,1,.17.42A3.2,3.2,0,0,0,3,6.91a2.2,2.2,0,0,0,.71.89A1.23,1.23,0,0,1,4,8.11,2.28,2.28,0,0,0,5,8.92a.49.49,0,0,1,.32.55c0,.16,0,.34-.07.49a2.08,2.08,0,0,1-.66,0H4.12A1.17,1.17,0,0,0,3,10.74a1.37,1.37,0,0,1-.17.37c-.13.09-.21,0-.3-.08a6.49,6.49,0,0,1-1.2-1.2A1,1,0,0,0,1,9.56a.15.15,0,0,1-.1-.16C1,9.29.87,9.25.81,9.19Z"/><path class="cls-2" d="M1,9.56a.27.27,0,0,1,.23.11,7,7,0,0,0,1.34,1.38.25.25,0,0,0,.14.06A.43.43,0,0,1,3,11.2a6,6,0,0,0,3.73,1,5.64,5.64,0,0,0,2.77-.95l.1,0a3.68,3.68,0,0,0,1.23-1,2.68,2.68,0,0,0,.53-.75.52.52,0,0,1,.31-.27,3.69,3.69,0,0,1-.79,1.19,6.08,6.08,0,0,1-3.72,2,6.15,6.15,0,0,1-5-1.44A5.36,5.36,0,0,1,1,9.56Z"/><path class="cls-2" d="M.81,9.19A.18.18,0,0,1,1,9.33c0,.06,0,.06-.08.07A.29.29,0,0,1,.81,9.19Z"/><path class="cls-3" d="M5.2,10a.25.25,0,0,1,0-.08.83.83,0,0,0-.54-1,1.88,1.88,0,0,1-.77-.76.65.65,0,0,0-.18-.22.93.93,0,0,0,.27-1A.64.64,0,0,1,4.25,6a.55.55,0,0,0,.17-.35c.13-.45.22-.52.68-.52a8.29,8.29,0,0,0,2.51-.45.55.55,0,0,1,.66.19,2.32,2.32,0,0,1,.56,1.29,2.76,2.76,0,0,1-1.31,2.8c-.14.08-.29.14-.43.21a2.45,2.45,0,0,1-1.69.07,2.42,2.42,0,0,0,1.13.09c.19,0,.36-.09.54-.11l0,.76c.06.08,0,.17,0,.26a1,1,0,0,1-1,.7,1,1,0,0,1-.93-.73A.24.24,0,0,1,5.2,10Z"/><path class="cls-4" d="M8.83,6.13a3.3,3.3,0,0,0-.7-1.35.32.32,0,0,0-.4-.09A8,8,0,0,1,5,5.16a.41.41,0,0,0-.47.37c0,.1,0,.2-.08.31s0,.23-.23.23-.31.44-.17.7a1.08,1.08,0,0,1,0,.9.23.23,0,0,1-.28.19,1.12,1.12,0,0,1-.51-.5A10.63,10.63,0,0,1,2.47,6a.75.75,0,0,1-.1-.38,1.16,1.16,0,0,0-.25-.8c-.15-.18-.08-.38,0-.58a1.86,1.86,0,0,1,.33-.41A1,1,0,0,0,2.84,3c0-.21.13-.29.31-.29s.55,0,.83,0a1.19,1.19,0,0,0,.74-.26,1.67,1.67,0,0,1,2,.07.88.88,0,0,0,.78.24.61.61,0,0,1,.69.38,1.19,1.19,0,0,1,.13,1.14c-.06.11,0,.16.08.23A2.56,2.56,0,0,1,8.83,6.13Z"/><path class="cls-5" d="M5.2,10a1,1,0,0,0,.65.83A.94.94,0,0,0,7.09,10H8.18a1.22,1.22,0,0,1,1.25.86c.05.12.08.24.12.36s-.07.13-.14.17a6.11,6.11,0,0,1-6.61-.15.27.27,0,0,1-.07-.08A3.5,3.5,0,0,1,3,10.55,1.14,1.14,0,0,1,4,10C4.42,10,4.81,10,5.2,10Z"/><path class="cls-6" d="M7.07,9.19a2.45,2.45,0,0,1-1.71,0,3,3,0,0,0,1.73-.06Z"/></g></g></svg>